<mxfile host="app.diagrams.net" modified="2024-02-06T19:24:14.507Z" agent="Mozilla/5.0 (Windows NT 10.0; Win64; x64) AppleWebKit/537.36 (KHTML, like Gecko) Chrome/121.0.0.0 Safari/537.36" etag="Da4j661GW2nEWYZdyl0S" version="23.1.1" type="device">
  <diagram name="PÃ¡gina-1" id="GrbmOqPNKneZc1BBoojM">
    <mxGraphModel dx="1400" dy="753" grid="1" gridSize="10" guides="1" tooltips="1" connect="1" arrows="1" fold="1" page="1" pageScale="1" pageWidth="1169" pageHeight="827" math="0" shadow="0">
      <root>
        <mxCell id="0" />
        <mxCell id="1" parent="0" />
        <mxCell id="6pYzu7U7eRQnLxZWO-Bw-8" value="" style="image;points=[];aspect=fixed;html=1;align=center;shadow=0;dashed=0;image=img/lib/allied_telesis/computer_and_terminals/Personal_Computer_with_Server.svg;" vertex="1" parent="1">
          <mxGeometry x="880" y="370" width="140" height="140" as="geometry" />
        </mxCell>
        <mxCell id="6pYzu7U7eRQnLxZWO-Bw-9" value="" style="image;points=[];aspect=fixed;html=1;align=center;shadow=0;dashed=0;image=img/lib/allied_telesis/computer_and_terminals/Personal_Computer_with_Server.svg;" vertex="1" parent="1">
          <mxGeometry x="100" y="360" width="140" height="140" as="geometry" />
        </mxCell>
        <mxCell id="6pYzu7U7eRQnLxZWO-Bw-10" value="" style="image;points=[];aspect=fixed;html=1;align=center;shadow=0;dashed=0;image=img/lib/allied_telesis/computer_and_terminals/Personal_Computer_with_Server.svg;" vertex="1" parent="1">
          <mxGeometry x="350" y="210" width="140" height="140" as="geometry" />
        </mxCell>
        <mxCell id="6pYzu7U7eRQnLxZWO-Bw-11" value="" style="image;points=[];aspect=fixed;html=1;align=center;shadow=0;dashed=0;image=img/lib/allied_telesis/computer_and_terminals/Personal_Computer_with_Server.svg;" vertex="1" parent="1">
          <mxGeometry x="620" y="50" width="140" height="140" as="geometry" />
        </mxCell>
        <mxCell id="6pYzu7U7eRQnLxZWO-Bw-13" style="edgeStyle=orthogonalEdgeStyle;rounded=0;orthogonalLoop=1;jettySize=auto;html=1;exitX=0.75;exitY=0;exitDx=0;exitDy=0;endArrow=none;endFill=0;" edge="1" parent="1" source="6pYzu7U7eRQnLxZWO-Bw-12">
          <mxGeometry relative="1" as="geometry">
            <mxPoint x="710" y="220" as="targetPoint" />
          </mxGeometry>
        </mxCell>
        <mxCell id="6pYzu7U7eRQnLxZWO-Bw-14" style="edgeStyle=orthogonalEdgeStyle;rounded=0;orthogonalLoop=1;jettySize=auto;html=1;exitX=0.25;exitY=0;exitDx=0;exitDy=0;endArrow=none;endFill=0;" edge="1" parent="1" source="6pYzu7U7eRQnLxZWO-Bw-12">
          <mxGeometry relative="1" as="geometry">
            <mxPoint x="470" y="380" as="targetPoint" />
          </mxGeometry>
        </mxCell>
        <mxCell id="6pYzu7U7eRQnLxZWO-Bw-15" style="edgeStyle=orthogonalEdgeStyle;rounded=0;orthogonalLoop=1;jettySize=auto;html=1;exitX=1;exitY=0.5;exitDx=0;exitDy=0;endArrow=none;endFill=0;" edge="1" parent="1" source="6pYzu7U7eRQnLxZWO-Bw-12">
          <mxGeometry relative="1" as="geometry">
            <mxPoint x="960" y="530" as="targetPoint" />
          </mxGeometry>
        </mxCell>
        <mxCell id="6pYzu7U7eRQnLxZWO-Bw-16" style="edgeStyle=orthogonalEdgeStyle;rounded=0;orthogonalLoop=1;jettySize=auto;html=1;exitX=0;exitY=0.5;exitDx=0;exitDy=0;endArrow=none;endFill=0;" edge="1" parent="1" source="6pYzu7U7eRQnLxZWO-Bw-12">
          <mxGeometry relative="1" as="geometry">
            <mxPoint x="200" y="530" as="targetPoint" />
          </mxGeometry>
        </mxCell>
        <mxCell id="6pYzu7U7eRQnLxZWO-Bw-12" value="" style="image;html=1;image=img/lib/clip_art/networking/Switch_128x128.png" vertex="1" parent="1">
          <mxGeometry x="510" y="620" width="150" height="130" as="geometry" />
        </mxCell>
      </root>
    </mxGraphModel>
  </diagram>
</mxfile>
